<svg version="1.0" xmlns="http://www.w3.org/2000/svg" width="682.667" height="682.667" viewBox="0 0 512 512"><path d="M291 8.6c-31.4 6.7-56 29.5-65.7 60.9l-2.7 9-.4 43.3c-.3 37.4-.1 44.4 1.4 51.5 5.3 26.4 22.1 49 45.2 60.6l6.2 3.1v34h-17.4c-15.1 0-18.4.3-25.2 2.3-18.4 5.3-33.6 18-41.8 34.8-5.8 11.9-8.3 22.5-9.6 40.8-1.3 17.3-3.4 25.3-9 33.8-14.7 22.4-43.5 29.8-67.1 17.2-7.4-4-16.1-12.6-20.4-20.4-5.9-10.5-6.5-15-6.5-52.8V293h13.7c11.8 0 14.2-.3 18-2.1 5.5-2.6 9.3-7.6 10-12.9.5-3.7 1.2-4.5 6-7.6 14.1-9 17.3-27.4 7.2-41.4l-3.1-4.2 3.7-15c3.2-12.7 3.7-15.9 3.1-21.3-1.6-15.9-8.1-29.1-20-41.1-6.7-6.8-9.7-8.9-17.6-12.7-11-5.3-18-6.9-29.5-6.9S51 129.4 40 134.7c-20.7 9.9-35.2 30.7-37.6 53.8-.6 5.4-.1 8.6 3.1 21.3l3.7 15-3.1 4.2c-10.2 14.1-6.9 32.4 7.4 41.5 4.2 2.7 5.5 4.1 5.5 6 0 3.4 1.8 7.6 4.3 10.3 4.5 4.9 7.4 5.7 22.7 6.2l14.5.5.6 37c.6 40.7.8 41.8 7.3 55 9.1 18.2 26.3 31.6 46.4 36.1 10.5 2.3 25 1.5 35.9-2 10.3-3.3 21.2-10.5 29.2-19.2 5.9-6.5 5.9-6.5 6.5-3.7.3 1.5 3.7 25.3 7.6 52.7 3.9 27.5 7.6 50.8 8.1 51.8s1.8 2.2 2.9 2.8c2.5 1.3 205.4 1.4 207.9 0 1-.5 2.3-2.2 2.9-3.7.6-1.5 4.1-23.9 7.7-49.8 3.6-25.9 6.8-48.5 7.1-50.3l.6-3.3 3.3 4.8c13.8 20.4 36 33.8 60.5 36.2 6.5.7 9.3.6 11.7-.4 3.8-1.6 5.8-5.3 4.9-9-1.1-4.3-3.9-6.3-10.3-7-12.4-1.3-18.1-2.8-27.2-7.2-16.3-7.8-29.2-23.2-34.5-41.3-.9-3-2.1-12.3-2.6-20.5-1.6-26.2-6.2-41.4-16.8-55.9-4.9-6.7-15.3-15.1-23.7-19.1-10.9-5.3-17.7-6.5-36.7-6.5H343v-34l5.3-2.6c21.9-11.1 38.3-31.8 45-56.8 2.1-7.8 2.2-9.9 2.2-52.6-.1-51.2-.2-51.9-9.5-70.5-11.9-23.7-33.8-40.7-59.5-46-9.1-1.8-26.7-1.8-35.5.1zm33.2 16.9c25.9 5.5 48.4 28.6 53.3 54.9l.8 3.8-6.5-4.1c-15.3-9.6-34.5-16.8-51.7-19.2-22.4-3.1-49.2 2.9-71.2 16.2-4.5 2.7-8.4 4.7-8.6 4.5-.9-.9 2.2-10.7 5.8-18.1 7.1-14.9 17.1-25 32.4-32.6 4.4-2.2 10.9-4.6 14.5-5.3 8.8-1.9 22.3-1.9 31.2-.1zm-1.5 53c16.6 3.2 32.7 10.4 48.1 21.7l8.3 6-.3 31.2c-.5 35-.8 37.1-8 51.6-3.3 6.7-6.1 10.3-12.8 17.1-7.2 7.3-10.1 9.4-18 13.2-12.3 6-23.1 8.2-35.5 7.4-29.2-2.1-53.4-21-62.6-49.2-2.2-6.6-2.3-8.9-2.7-39.7l-.3-32.7 8.8-6.5c23.6-17.5 50.6-24.7 75-20.1zM85.6 147.3c15 5.5 26.5 17 31.5 31.4 3.6 10.4 3.5 13.3-1.2 31.3-2.3 9.1-4.2 17.8-4.1 19.5.1 2.1 1.2 4 4 6.5 6.5 5.8 7.5 9.4 4.6 15.6-1.8 3.8-4.9 5.8-10.7 6.8-2 .4-4.6 1.7-5.8 2.9-1.8 1.9-2 3-1.5 8.4l.7 6.3H35.9l.7-6c.6-5.5.4-6.3-1.6-8.5-1.3-1.4-3.9-2.8-5.9-3.1-5.6-1-8.7-3-10.5-6.8-2.9-6.2-1.9-9.8 4.6-15.6 2.8-2.5 3.9-4.4 4-6.5.1-1.7-1.8-10.4-4.1-19.5-3.3-12.9-4.1-17.5-3.7-21.2 3-22.6 21.8-41.3 44.1-43.7 7.3-.7 16.6.2 22.1 2.2zm228.7 96.3l11.8-.6-.3 13.8-.3 13.7-16.7.3-16.8.2v-28.7l5.3 1c2.8.5 10.5.7 17 .3zm-45.6 45.6c-.3.7-3.6 7.8-7.3 15.8-5.3 11.3-6.8 15.4-6.7 18.6.2 6.9 4.1 12.9 10.8 16.9 1.5.9.5 3.4-8.5 23-5.6 12.1-10.4 23.4-10.7 25.1-.7 4 1.2 9.9 4.4 14.2 2.3 3 2.4 3.9 1.8 9.5-1.9 16.8-11.5 45.9-21.7 66l-5 9.7h-4.4c-3.7 0-4.4-.3-4.9-2.3-.2-1.2-4.6-31-9.6-66.2-8.3-58-9.1-64.9-8.5-74 1.1-18.6 6.6-32.5 17.1-43.1 10.9-11 19.9-14.3 39.9-14.3 10.7-.1 13.7.2 13.3 1.1zm68.2 16.7c6.7 13.3 8.7 18.1 7.8 19-1.6 1.6-3.1 1.4-5.1-.8-4.7-5.2-12.5-2.9-14.7 4.1-1.8 5.5-4.7 5.8-8.1.8-4.5-6.6-11.1-6.6-15.4.1-3.4 5.4-6.6 5.2-7.5-.5-.7-4.3-4.7-8.6-7.9-8.6-2.4 0-7 2.1-7 3.1 0 1.4-3.8 2.9-5.4 2.3-.9-.3-1.6-1.2-1.6-1.9s2.8-7 6.1-14.1c3.4-7.1 7-14.8 8-17.2l1.8-4.2H328l8.9 17.9zm42.1-16.8c12.6 2.9 25.6 13 31.9 24.8 4.6 8.8 6.9 16.7 8.2 29.1l1.1 10.5-9.1 64c-5.1 35.2-9.4 65.5-9.8 67.3-.5 3.2-.6 3.3-5.1 3l-4.6-.3-5.2-10.2c-9.9-19.8-17.3-41.7-20.8-62.2l-1.4-8.4 2.8-3.9c1.5-2.1 3.4-6.1 4-9l1.3-5.1-11.6-23.2-11.6-23.3 4.2-2.7c5.9-3.6 9-8.5 9.5-14.8.4-4.9-.1-6.1-7.8-21l-8.2-15.7h13.9c7.6 0 15.8.5 18.3 1.1zM288.5 348c4.7 2.4 11 2.6 16.4.4 3.6-1.4 4.3-1.4 8.5 0 5.8 2 10.6 2 15.1.2 3.2-1.4 3.5-1.3 4.8.8 2.9 4.4 20.7 40.6 20.7 42.1 0 1.6-3 3.5-5.5 3.5-1 0-3-1.1-4.7-2.5-3.4-2.8-8.2-3.3-11.5-1-1.1.8-2.6 3.5-3.2 5.9-1.8 7.2-7.2 8.5-10.8 2.8-3.2-5.2-5.6-7.2-8.5-7.2-4.2 0-6.5 1.6-8.8 6-1.1 2.1-2.9 4.1-4 4.5-3 1-6.7-1.9-7.5-5.7-1.2-6.1-1.6-6.8-4.7-8.4-3.8-2-6.7-1.2-11 2.6-3.7 3.4-6.8 3.8-9.2 1.1-1.6-1.8-1.2-2.9 8-22.7 9.9-21.5 11.3-24.4 11.7-24.4.2 0 2 .9 4.2 2zm-9.4 65.6c6.3 6.8 18.4 8.9 26.4 4.7 3.5-1.8 4.3-1.9 5.9-.7 1 .7 4.2 1.8 7.1 2.5 6.7 1.5 14.4-.6 20.1-5.5 3-2.6 4.6-3.3 6.6-2.9 2.5.5 2.7 1.1 4.3 9.7 3.2 17.4 11.2 42.1 18.2 56.1 1.7 3.3 3.4 7 3.7 8.2l.7 2.3h-127l4.6-9.7c8.3-18 14.8-37.7 17.9-54.3 2.3-12.7 1.9-12.1 8-12.9.6 0 2.1 1.1 3.5 2.5z"/><path d="M45.3 180.6c-4.3 2.1-7.3 7.1-7.3 12 0 10.2 11.1 16.7 19.7 11.4 4.5-2.7 6.5-6.2 6.5-11.4 0-5.5-3-10.2-7.8-12.2-4.3-1.8-7.1-1.7-11.1.2zm37.1-.2c-4.6 2-7.6 6.8-7.6 12.2 0 5.2 2 8.7 6.5 11.4 8.6 5.3 19.7-1.2 19.7-11.3 0-5.1-2.7-9.5-7.2-11.8-4.3-2.2-7.1-2.3-11.4-.5zm-18.2 40.7c-6.2 4-8.4 13.2-4 16.3 3.1 2.2 5.4 2 7.5-.7l1.8-2.4 1.8 2.4c2.1 2.7 4.4 2.9 7.5.7 4.5-3.1 2.1-12.2-4.4-16.5-3.7-2.4-6.1-2.4-10.2.2zm241.3 213.1c-4.9 2.6-5.9 7.7-2.4 12.2 3.9 5 11.8 2.7 13.5-3.9.8-3.1-1.7-7.2-5.2-8.5-3.1-1.2-3.4-1.2-5.9.2zm-2.3 26.1c-4.8 5.1-1.2 12.7 6 12.7 4.4 0 7.2-2.9 7.2-7.5 0-4.7-2.8-7.5-7.4-7.5-2.5 0-4.3.7-5.8 2.3z"/></svg>