<svg version="1.0" xmlns="http://www.w3.org/2000/svg" width="682.667" height="682.667" viewBox="0 0 512 512"><path d="M132.8 35.9l-3.3 2.9-.3 27.1-.3 27.1H33.8L23.5 83c-11-10.7-12.7-11.5-18.4-8.5C1.7 76.2-.5 81 .4 84.7c.4 1.7 5 7.1 11.1 13.3L22 108.5l.2 103.3.3 103.4 3.3 2.9L29 321h230.7l-14.3 34.7c-7.9 19.2-14.4 35.8-14.4 37 0 3.4 1.9 6.8 4.8 8.5 5 2.9 188.2 77.8 190.3 77.8 2.9 0 7.5-2.9 8.7-5.5 5.7-12.5 76.5-186.4 76.9-188.9 1.1-7 .9-7.1-71.7-36.9l-66.5-27.3-.3-57.9-.2-57.9 6.8-7.1c3.8-3.8 7.7-8.1 8.6-9.5 4.3-6.5-.8-15-9-15-2.1 0-5 2.3-12.9 10l-10.1 10h-90.3l-.3-27.1-.3-27.1-3.3-2.9L259 33H136l-3.2 2.9zM246 73v20h-97V53h97v20zm107 133.5V301H42V112h311v94.5zm78.5 59c42.8 17.6 57 23.8 56.9 25-.3 2.9-48.9 120.5-49.8 120.5-1.1 0-164.8-67-165.8-67.9-.4-.3 1.3-5.3 3.6-11.1l4.4-10.5 43.1-.5 43.1-.5 2.7-2.8 2.8-2.7.3-36.5c.2-20.1.6-36.5 1-36.5s26.4 10.6 57.7 23.5zm-81.7 130.6c44.4 18.2 80.9 33.3 81.1 33.5.5.4-8.3 22.8-9.8 25.3-.7 1-18.2-5.8-83.2-32.5-45.3-18.5-82.8-34.1-83.3-34.5-.4-.4 1.6-6.6 4.5-13.7 5.1-12.5 5.4-12.9 7.7-12.1 1.3.5 38.7 15.8 83 34z"/><path d="M189 129.7c-28.5 3.7-52.5 21.8-63.1 47.5-8.4 20.4-7.6 44.7 2.1 63.8 10.8 21.2 29.9 36.2 53 41.5 8.3 1.9 24.7 1.9 33 0 28.2-6.5 50.2-27.3 58.2-55.2 3.3-11.3 3.2-30.7 0-41.2-7.1-22.7-20.6-38.8-40.7-48.6-4.9-2.5-12-5.1-15.6-5.9-7.1-1.7-21.3-2.7-26.9-1.9zm21.9 20.8c20.2 4.8 37.2 21.6 42.6 42 1.9 7.6 1.9 21.4 0 28.9-4.8 18.4-19.3 33.9-37.6 40.3-10.5 3.7-25.2 3.8-35.8.3-14.5-4.7-27.4-15.7-34.2-29.2-4.2-8.3-5.9-15.9-5.9-26.5 0-21.6 11.5-40.5 30.8-50.6 12.3-6.5 26.7-8.3 40.1-5.2zm74.4-18c-1.2.8-2.7 3.1-3.3 5-1.4 4.3.8 9.6 4.6 11.4 1.6.7 9.7 1.1 22.7 1.1 17.6 0 20.5-.3 22.3-1.8 5.2-4.1 5.8-10 1.5-14.3l-2.9-2.9h-21.4c-17.4 0-21.8.3-23.5 1.5z"/></svg>