<svg version="1.0" xmlns="http://www.w3.org/2000/svg" width="682.667" height="682.667" viewBox="0 0 512 512"><path d="M103 1.4c-8.1 1.8-13 3.5-20.6 7.4-8.3 4.3-10.8 6.2-18.2 13.4-10.8 10.4-18.9 25-21.4 38.3l-1.2 6.3-14.1.4c-15.4.3-18.6 1.4-20.5 6.4-.6 1.6-1 45.9-1 115 0 120.4-.1 117.7 4.8 120.3 1.3.7 10.1 1.1 23.6 1.1h21.4l.4 19.5.3 19.5 2.8 2.7 2.7 2.8 29.3.5 29.3.5-54.7 71.3C35.8 466 11 499.3 10.7 500.7c-1.1 6 4.3 11.9 10.2 10.9 1.9-.3 4.2-1.2 5-2.1.9-.8 27.9-35.8 60.1-77.8l58.5-76.2h125.9l58.1 75.8c32 41.7 59 76.7 60.1 77.8 1.1 1.1 3.6 2.2 5.5 2.5 2.8.5 4.1.1 6.7-2.1 3.8-3.2 4.3-8.2 1.3-13-1-1.7-25.7-34.1-54.8-72l-53-69 28.6-.5c32.3-.6 33.1-.7 35-7.7.6-2.1 1.1-11.3 1.1-20.6V310h21.6c13.5 0 22.3-.4 23.6-1.1 4.2-2.3 4.8-6.3 4.8-33 0-23.5.1-25.1 1.8-24.7.9.3 19.7 7.6 41.6 16.2 22 8.7 41.2 16 42.6 16.3 3.6.7 8.4-1.9 9.9-5.4.8-2.1 1.1-25.1.9-87.5l-.3-84.8-2.6-2.6c-1.8-1.7-3.7-2.6-6-2.6-2.1-.1-19.2 6.2-45.4 16.5l-42 16.5-.5-29.7c-.6-33.4-.7-34.1-7.7-36-2.1-.6-9.3-1.1-15.9-1.1h-12.2l-.7-4.5c-.9-6.4-3.8-14.3-8.2-22.8-5.4-10.5-20-24.8-30.8-30.4-46.1-23.8-100.5 1.6-111.6 51.9l-1.2 5.8h-26.5l-1.7-7.4c-.9-4.1-3.6-11.4-6-16.3-9.7-19.7-24.1-32.2-45.4-39.3C129.7.2 113.8-.9 103 1.4zm26.4 19.1c6.8 1.4 17.2 5.8 21.1 8.8 1.9 1.5 1.6 2-9.5 13.2-8 8-12 11.3-13 10.9-4.8-2.1-11.8-2.6-16.7-1.2l-5.1 1.5-11.6-11.6L83 30.5l4.3-2.7c12.6-7.8 27.4-10.4 42.1-7.3zm185.7 1.4c16.7 5.3 31.2 19.7 37.1 36.9 3.3 9.6 3.3 26.8 0 36.4-7.6 21.9-27.5 37.5-50.4 39.4-28.6 2.5-55.3-17.7-61.3-46.1-2.7-12.8-1.1-24.4 5-37.3 6.8-14.4 22.9-27.1 38.9-30.8 8.2-1.8 22.3-1.2 30.7 1.5zM81.6 56.1l11.2 11.2-.5 7.1c-.4 5.1-.1 8.1 1 10.7l1.5 3.6-11.7 11.7L71.4 112l-3.4-5.6c-6.9-11.4-9.7-28.2-6.9-41.6 1.1-5.4 7.4-19.8 8.7-19.8.4 0 5.7 5 11.8 11.1zm89.8-.5c4.9 12.1 5.3 27.3 1 40.1-1.8 5.3-7.2 15.3-8.2 15.3-1.6 0-23.4-22.9-22.8-23.8 1.5-2.5 2.4-11 1.6-14.8l-.9-3.9 11.7-11.8L165.5 45l1.7 2.2c1 1.3 2.8 5 4.2 8.4zM42.6 93c5.5 27 27.5 50.3 55 58.2 6.4 1.8 10.3 2.2 20.9 2.2 12 0 13.7-.3 22.4-3.2 21.6-7.5 36.4-20.4 46.2-40.6 2.1-4.4 4.6-11.5 5.6-15.8l1.7-7.9 12.9.3 13 .3 2.3 8.8c7.2 26.9 24.9 45.8 51.4 54.8 8.8 3 10.5 3.3 22.5 3.3 10.5 0 14.5-.4 20.8-2.2 14.5-4.1 25.7-11.1 36.4-22.6 8.2-8.8 15.4-22.1 17.9-33.1.9-3.9 1.8-7.6 2-8.3.3-.9 2.4-1.2 8.1-1l7.8.3.3 102.2.2 102.3H25V189.2c0-56 .3-102.2.7-102.6.4-.4 4.1-.5 8.2-.4l7.4.3 1.3 6.5zm106.3 32.6c-1.6 2-12.6 6.4-19.6 7.9-8.6 1.8-15 1.8-23.6 0-6.4-1.3-19.7-7-19.7-8.4 0-.3 5.1-5.7 11.3-11.9l11.2-11.2 6 .5c3.3.3 7.4.2 9-.3 2.9-.9 3.4-.5 14.7 10.6 8.3 8.2 11.4 11.9 10.7 12.8zM487 192c0 37.4-.4 68-.8 68-.5 0-17.9-6.7-38.8-14.9l-37.9-14.8-.3-38-.2-37.9 38.2-15.1c21.1-8.3 38.6-15.2 39.1-15.2.4-.1.7 30.5.7 67.9zM339.5 323v12.5l-132.2.3L75 336v-12.3c0-6.8.3-12.7.7-13 .3-.4 59.9-.6 132.2-.5l131.6.3V323z"/><path d="M76.6 218.6c-5.7 5.8-2.1 14.6 6.5 15.9 2.4.3 19.8.5 38.5.3 32.5-.3 34.3-.4 36.4-2.3 3.3-3 4.2-6.2 3-10.1-2.2-6.5-1.4-6.4-43.6-6.4H79.3l-2.7 2.6z"/></svg>